<svg width="390" height="314" viewBox="0 0 475 314" fill="none" xmlns="http://www.w3.org/2000/svg">
<g id="Frame" clip-path="url(#clip0_1_2)">
<path id="Vector" d="M35.0336 313.853C35.0336 313.853 -13.6005 264.922 3.73507 196.079C16.4798 145.469 56.0482 115.665 111.396 127.377C162.971 138.288 218.989 126.854 267.205 46.9695C323.475 -46.2617 450.911 10.3004 434.704 120.431C424.036 192.932 506.111 196.338 461.734 314L35.0336 313.853Z" fill="#484C50"/>
<g id="Frame_2">
<path id="Vector_2" d="M366.038 217.227L399.289 98.049H325.842L294.368 213.093L366.038 217.227Z" fill="#232527"/>
<path id="Vector_3" d="M389.315 146.623C388.362 152.078 385.681 156.863 385.509 157.295C384.055 160.896 376.072 141.142 376.072 141.142L374.881 133.533L372.944 121.172L372.399 117.702L370.231 103.87L370.765 101.767L373.372 91.5499L373.136 89.2205C373.136 89.2205 381.182 93.6661 383.37 102.101C384.145 105.087 385.265 111.419 386.33 118.506C386.497 119.616 387.431 120.075 387.596 121.213C388.968 130.85 390.148 141.858 389.315 146.623Z" fill="#ED975D"/>
<path id="Vector_4" d="M242.183 158.356C242.183 158.356 244.418 157.164 246.379 156.997C257.439 156.045 281.426 147.851 283.965 145.973C288.65 142.509 308.228 126.066 315.945 117.767C315.953 117.762 322.408 110.183 322.408 110.183C329.712 102.333 323.087 88.6299 323.087 88.6299C323.087 88.6299 310.545 93.9478 306.007 99.1782C303.044 102.593 280.377 130.621 277.548 131.999C268.331 136.485 242.197 151.799 239.472 152.999C239.472 153.002 235.931 155.457 242.183 158.356Z" fill="#FFB27D"/>
<path id="Vector_5" d="M173.227 293.886C173.227 293.886 174.744 313.523 171.371 313.783C170.921 313.818 154.252 313.818 154.252 313.818L132.971 313.69C132.971 313.69 133.111 308.347 139.33 307.218C145.549 306.089 157.862 300.637 161.63 292.071C165.592 283.062 173.227 293.886 173.227 293.886Z" fill="#353637"/>
<path id="Vector_6" d="M321.329 173.287C321.329 173.287 319.456 208.888 316.191 215.092C316.191 215.092 314.732 214.577 304.082 214.485C291.192 214.37 229.638 214.124 222.255 217.853C219.946 219.02 213.327 246.766 173.786 294.51C173.786 294.51 169.851 297.154 163.84 296.716C158.103 296.301 157.621 295.24 157.621 295.24C157.621 295.24 195.237 199.244 203.567 191.337C216.291 179.258 281.437 166.831 290.967 166.555C300.497 166.274 321.329 173.287 321.329 173.287Z" fill="#B08667"/>
<path id="Vector_7" d="M217.342 294.715C217.342 294.715 218.859 313.534 215.485 313.783C215.036 313.815 198.367 313.815 198.367 313.815L177.086 313.692C177.086 313.692 177.226 308.574 183.445 307.491C189.664 306.409 201.976 301.184 205.745 292.976C209.71 284.342 217.342 294.715 217.342 294.715Z" fill="#353637"/>
<path id="Vector_8" d="M345.811 173.287C345.811 173.287 345.293 183.13 344.327 193.366C343.138 205.976 335.306 213.992 322.69 215.308C314.195 216.193 304.156 215.726 297.523 215.688C265.537 215.51 254.117 214.124 246.737 217.853C244.429 219.021 255.41 236.53 217.972 294.51C217.972 294.51 215.148 296.765 208.891 297.654C205.158 298.184 200.851 296.765 200.851 296.765C200.851 296.765 212.467 205.588 221.932 195.045C228.699 187.504 282.368 178.662 291.901 178.383C301.433 178.102 345.811 173.287 345.811 173.287Z" fill="#BD9573"/>
<path id="Vector_9" d="M389.315 122.817C389.315 122.817 382.757 128.742 371.822 127.723C371.203 130.886 370.43 134.405 369.524 138.129C369.45 138.438 369.373 138.749 369.297 139.064C367.873 144.857 366.142 151.118 364.2 157.295C358.562 175.236 351.127 192.51 344.08 195.909C343.341 196.264 322.402 196.068 308.069 190.501C303.92 188.888 299.93 186.422 296.329 183.69C291.104 179.728 286.692 175.217 283.798 171.983C281.716 169.656 281.93 166.085 284.263 164.007C289.658 159.206 298.64 150.722 300.661 145.749C302.367 141.554 304.881 132.729 306.894 125.256C296.302 122.451 293.883 110.949 293.883 110.949C293.883 110.949 311.224 92.0995 316.657 88.6327C323.766 84.0968 333.17 83.5171 336.854 82.8855C345.893 81.3353 356.538 81.606 373.136 89.2178C373.136 89.2178 382.535 94.2923 385.038 104.078C387.543 113.863 389.315 122.817 389.315 122.817Z" fill="#3A3A3A"/>
<path id="Vector_10" d="M346.238 96.4796C337.33 97.1522 336.558 89.9723 336.558 89.9723L336.76 85.2095L336.996 79.6154C336.996 79.6154 343.448 76.2169 348.533 73.8628C351.778 72.3618 354.473 71.2845 354.577 71.7904C355.322 75.2709 357.466 82.2047 359.695 85.327C361.002 90.727 355.149 95.8042 346.238 96.4796Z" fill="#ED975D"/>
<path id="Vector_11" d="M333.699 81.1247C333.699 81.1247 356.072 83.1452 357.118 69.2148C358.165 55.2844 361.755 46.1634 347.515 44.285C333.274 42.4067 330.095 47.514 328.613 52.08C327.132 56.6433 327.907 80.2416 333.699 81.1247Z" fill="#FFAC73"/>
<path id="Vector_12" d="M365.063 43.3254C365.268 43.0902 365.745 42.9016 366.799 42.8496C366.799 42.8496 365.959 42.3192 364.83 42.2891C364.614 40.8237 363.844 38.2262 361.322 37.5892C361.322 37.5892 362.678 38.3165 362.848 39.8749C359.934 36.8646 353.674 34.6582 336.317 35.9624C313.439 37.6794 320.921 52.3289 323.876 54.0814C326.831 55.834 334.301 51.0848 339.817 51.5414C345.332 51.998 346.351 59.9626 348.218 61.0617C350.086 62.1608 349.358 60.2278 351.893 59.0931C354.429 57.9584 354.654 62.1499 353.915 64.8703C353.172 67.5908 356.639 71.1971 356.639 71.1971C356.639 71.1971 356.639 71.1971 360.169 67.4295C363.699 63.6618 367.073 47.6617 365.487 44.2413C365.345 43.9406 365.208 43.6343 365.063 43.3254Z" fill="#2C2F35"/>
<path id="Vector_13" d="M342.333 80.8595C342.333 80.8595 340.562 77.9203 342.333 77.327C351.431 74.2812 354.087 76.0009 354.087 76.0009L342.333 80.8595Z" fill="#ED975D"/>
<path id="Vector_14" d="M357.108 89.1713C357.108 89.1713 357.91 75.7275 353.181 75.8287C348.451 75.9299 342.61 77.4336 342.385 78.6394C341.758 82.0188 347.208 93.4748 349.913 93.9833C352.616 94.4946 357.108 89.1713 357.108 89.1713Z" fill="#FFB27D"/>
<path id="Vector_15" d="M369.297 139.064C367.873 144.857 366.142 151.118 364.2 157.295C358.562 175.236 351.127 192.51 344.08 195.909C343.341 196.264 322.402 196.067 308.069 190.501C303.92 188.888 299.93 186.421 296.329 183.69C305.927 186.575 321.737 183.879 336.558 178.826C352.436 173.41 353.216 153.833 353.216 153.833C357.806 143.004 351.836 105.912 351.836 105.912L369.297 139.064Z" fill="#2C2C2C"/>
<path id="Vector_16" d="M349.251 93.6497C349.251 93.6497 361.968 162.676 378.775 162.717C385.248 162.733 393.176 145.937 384.624 136.376C372.347 122.653 357.108 89.1712 357.108 89.1712C357.108 89.1712 354.974 87.8315 349.251 93.6497Z" fill="#FFB27D"/>
<path id="Vector_17" d="M239.472 153.002C239.472 153.002 234.17 153.902 231.399 153.002C228.627 152.105 211.687 158.626 213.722 158.782C215.756 158.938 225.905 157.442 228.271 157.639C230.637 157.839 231.9 157.948 230.972 158.793C230.043 159.638 223.473 159.876 225.768 160.603C228.063 161.333 233.696 161.123 236.095 160.603C238.494 160.084 241.096 158.932 242.681 158.112C244.456 157.194 239.472 153.002 239.472 153.002Z" fill="#FFB27D"/>
<path id="Vector_18" d="M85.8331 171.365H405.817C408.211 171.365 410.15 169.429 410.15 167.039C410.15 164.65 408.211 162.714 405.817 162.714H85.8331C83.4396 162.714 81.5007 164.65 81.5007 167.039C81.5007 169.429 83.4423 171.365 85.8331 171.365Z" fill="#232527"/>
<path id="Vector_19" d="M94.6018 313.851L94.506 313.837C93.375 313.687 92.5726 312.593 92.715 311.396L109.954 167.039L119.615 167.34L96.4476 312.402C96.2997 313.332 95.4836 313.971 94.6018 313.851Z" fill="#232527"/>
<path id="Vector_20" d="M397.388 313.851L397.484 313.837C398.615 313.687 399.418 312.593 399.275 311.396L382.036 167.039L372.375 167.34L395.543 312.402C395.691 313.332 396.504 313.971 397.388 313.851Z" fill="#232527"/>
<path id="Vector_21" d="M365.03 309.154L365.18 309.151C366.399 309.127 367.341 308.074 367.226 306.863L359.095 221L352 221.67L363.677 307.995C363.767 308.67 364.35 309.168 365.03 309.154Z" fill="#232527"/>
<g id="Frame_3" clip-path="url(#clip1_1_2)">
<path id="Vector_22" d="M363.865 222H254.134C251.859 222 250 220.107 250 217.79V212.21C250 209.893 251.859 208 254.134 208H363.865C366.141 208 368 209.893 368 212.21V217.79C368 220.107 366.141 222 363.865 222Z" fill="#232527"/>
</g>
<path id="Vector_23" d="M284.203 309.154L284.055 309.151C282.837 309.127 281.895 308.074 282.01 306.863L290.14 221L297.236 221.67L285.559 307.995C285.468 308.67 284.885 309.168 284.203 309.154Z" fill="#232527"/>
<g id="Frame_4" clip-path="url(#clip2_1_2)">
<path id="Vector_24" d="M120 116L135.774 162.25H201.964L185.763 116H120Z" fill="#8A8A8A"/>
<g id="Frame_5">
<path id="Vector_25" d="M157.725 141.468C158.133 143.234 159.899 144.667 161.668 144.667C163.437 144.667 164.541 143.234 164.133 141.468C163.725 139.702 161.958 138.269 160.187 138.269C158.42 138.269 157.317 139.702 157.725 141.468Z" fill="#DDDDDD"/>
</g>
</g>
<path id="Vector_26" d="M193 162.385H235.537C235.537 160.515 234.02 159 232.147 159H193.003V162.385H193Z" fill="#8A8A8A"/>
</g>
</g>
<defs>
<clipPath id="clip0_1_2">
<rect width="475" height="314" fill="white"/>
</clipPath>
<clipPath id="clip1_1_2">
<rect width="120" height="14" fill="white" transform="translate(250 215)"/>
</clipPath>
<clipPath id="clip2_1_2">
<rect width="83" height="48" fill="white" transform="translate(116 114)"/>
</clipPath>
</defs>
</svg>
